# xmcd CD database file
#
# Track frame offsets:
#	150
#	14737
#	30259
#	47024
#	61817
#	82224
#	86263
#	106293
#	127871
#	148002
#	155686
#	172074
#	189577
#	206233
#
# Disc length: 3011 seconds
#
# Revision: 3
# Processed by: cddbd v1.5.2PL0 Copyright (c) Steve Scherf et al.
# Submitted via: CDex 1.51
#
DISCID=be0bc10e
DTITLE=Hunter Hayes - Storyline
DYEAR=2014
DGENRE=Country
TTITLE0=Wild Card
TTITLE1=Storyline
TTITLE2=Still Fallin'
TTITLE3=Tattoo
TTITLE4=Invisible
TTITLE5=Interlude
TTITLE6=You Think You Know Somebody
TTITLE7=Flashlight
TTITLE8=When Did You Stop Loving Me
TTITLE9=Like I Was Saying (Jam)
TTITLE10=Secret Love
TTITLE11=Nothing Like Starting Over
TTITLE12=If It's Just Me
TTITLE13=Love Too Much
EXTD=YEAR: 2014
EXTT0=
EXTT1=
EXTT2=
EXTT3=
EXTT4=
EXTT5=
EXTT6=
EXTT7=
EXTT8=
EXTT9=
EXTT10=
EXTT11=
EXTT12=
EXTT13=
PLAYORDER=
